<svg width="204" height="161" viewBox="0 0 204 161" fill="none" xmlns="http://www.w3.org/2000/svg">
<g clip-path="url(#clip0_0_1)">
<path d="M39.48 4.974V13.449H31.694V4.974H28V25.205H31.695V17.005H39.479V25.205H43.175V4.974H39.48ZM55.002 18.666C55.002 19.4769 54.6799 20.2546 54.1065 20.828C53.5331 21.4014 52.7554 21.7235 51.9445 21.7235C51.1336 21.7235 50.3559 21.4014 49.7825 20.828C49.2091 20.2546 48.887 19.4769 48.887 18.666V10H45.382V18.666C45.382 20.4048 46.0727 22.0723 47.3022 23.3018C48.5317 24.5313 50.1992 25.222 51.938 25.222C53.6768 25.222 55.3443 24.5313 56.5738 23.3018C57.8033 22.0723 58.494 20.4048 58.494 18.666V10H55.002V18.666ZM80.973 10.893C80.973 9.116 82.148 8.553 83.435 8.553C84.473 8.553 85.843 9.343 86.74 10.301L89.035 7.595C87.889 6.045 85.565 4.974 83.662 4.974C79.859 4.974 77.109 7.201 77.109 10.893C77.109 17.743 85.481 15.569 85.481 19.403C85.481 20.585 84.333 21.629 83.019 21.629C80.946 21.629 80.274 20.616 79.322 19.544L76.774 22.193C78.404 24.193 80.414 25.209 82.821 25.209C86.434 25.209 89.34 22.955 89.34 19.431C89.34 11.827 80.967 14.19 80.967 10.893M132.767 21.973C130.696 21.973 130.107 21.077 130.107 19.705V13.63H133.327V10.552H130.107V6.491L126.553 8.086V20.46C126.553 23.625 128.737 25.22 131.731 25.22C132.201 25.228 132.671 25.19 133.133 25.108L134 21.916C133.609 21.943 133.16 21.97 132.767 21.97M68.344 10.101C66.608 10.101 65.396 10.605 64.224 11.754V5.095H60.714V17.438C60.714 22.058 64.054 25.224 67.808 25.224C71.972 25.224 75.635 22.002 75.635 17.664C75.635 13.38 72.264 10.104 68.344 10.104M68.322 21.691C67.7989 21.691 67.2809 21.588 66.7976 21.3878C66.3143 21.1876 65.8751 20.8942 65.5052 20.5243C65.1353 20.1544 64.8419 19.7152 64.6417 19.2319C64.4415 18.7486 64.3385 18.2306 64.3385 17.7075C64.3385 17.1844 64.4415 16.6664 64.6417 16.1831C64.8419 15.6998 65.1353 15.2606 65.5052 14.8907C65.8751 14.5208 66.3143 14.2274 66.7976 14.0272C67.2809 13.827 67.7989 13.724 68.322 13.724C69.3785 13.724 70.3917 14.1437 71.1388 14.8907C71.8858 15.6378 72.3055 16.651 72.3055 17.7075C72.3055 18.764 71.8858 19.7772 71.1388 20.5243C70.3917 21.2713 69.3785 21.691 68.322 21.691ZM106.464 17.48C106.464 13.134 102.809 9.92 98.637 9.92C94.884 9.92 91.543 13.085 91.543 17.706V30.056H95.053V23.388C96.223 24.535 97.437 25.041 99.171 25.041C103.091 25.041 106.464 21.765 106.464 17.48ZM103.14 17.436C103.14 18.4925 102.72 19.5057 101.973 20.2528C101.226 20.9998 100.213 21.4195 99.1565 21.4195C98.1 21.4195 97.0868 20.9998 96.3397 20.2528C95.5927 19.5057 95.173 18.4925 95.173 17.436C95.173 16.3795 95.5927 15.3663 96.3397 14.6192C97.0868 13.8722 98.1 13.4525 99.1565 13.4525C100.213 13.4525 101.226 13.8722 101.973 14.6192C102.72 15.3663 103.14 16.3795 103.14 17.436Z" fill="#33475B"/>
<path d="M117.806 9.75V6.223C118.272 6.00517 118.667 5.65944 118.944 5.22606C119.221 4.79268 119.37 4.28947 119.372 3.775V3.694C119.372 2.194 118.156 0.978 116.656 0.978H116.575C115.855 0.978 115.164 1.26415 114.654 1.7735C114.145 2.28285 113.859 2.97367 113.859 3.694V3.775C113.861 4.28947 114.01 4.79268 114.287 5.22606C114.564 5.65944 114.959 6.00517 115.425 6.223V9.75C114.085 9.95511 112.824 10.5105 111.768 11.36L102.095 3.826C102.164 3.577 102.2 3.321 102.204 3.064C102.205 2.45871 102.027 1.86666 101.691 1.36274C101.356 0.858824 100.879 0.465682 100.32 0.23304C99.7613 0.000399008 99.146 -0.0612889 98.5522 0.0557796C97.9583 0.172848 97.4125 0.463413 96.9838 0.890722C96.5551 1.31803 96.2627 1.86288 96.1437 2.45637C96.0247 3.04985 96.0844 3.66529 96.3152 4.22485C96.546 4.78441 96.9376 5.26295 97.4404 5.59993C97.9432 5.93692 98.5347 6.11721 99.14 6.118C99.6695 6.11551 100.189 5.97413 100.647 5.708L110.172 13.12C109.316 14.4127 108.87 15.9331 108.891 17.4832C108.912 19.0333 109.4 20.541 110.29 21.81L107.393 24.708C107.159 24.6331 106.915 24.5933 106.669 24.59C106.172 24.5904 105.687 24.7381 105.274 25.0144C104.861 25.2906 104.539 25.6831 104.349 26.1422C104.159 26.6013 104.109 27.1065 104.206 27.5938C104.303 28.081 104.543 28.5286 104.894 28.88C105.245 29.2313 105.693 29.4706 106.18 29.5676C106.668 29.6646 107.173 29.615 107.632 29.4251C108.091 29.2351 108.483 28.9133 108.76 28.5004C109.036 28.0874 109.184 27.6019 109.184 27.105C109.181 26.8592 109.141 26.6152 109.066 26.381L111.932 23.514C112.867 24.2335 113.953 24.7295 115.109 24.9641C116.265 25.1987 117.46 25.1656 118.601 24.8673C119.742 24.569 120.799 24.0135 121.693 23.2433C122.586 22.4731 123.291 21.5087 123.754 20.4238C124.217 19.339 124.426 18.1627 124.364 16.9848C124.302 15.807 123.971 14.659 123.397 13.6287C122.823 12.5984 122.02 11.7132 121.051 11.0409C120.082 10.3686 118.972 9.927 117.806 9.75ZM116.618 21.35C116.088 21.3646 115.561 21.2728 115.067 21.0802C114.574 20.8876 114.124 20.598 113.744 20.2285C113.364 19.859 113.062 19.4171 112.856 18.929C112.65 18.4409 112.544 17.9164 112.544 17.3865C112.544 16.8566 112.65 16.3321 112.856 15.844C113.062 15.3559 113.364 14.914 113.744 14.5445C114.124 14.175 114.574 13.8854 115.067 13.6928C115.561 13.5002 116.088 13.4084 116.618 13.423C117.645 13.459 118.617 13.8919 119.331 14.6307C120.045 15.3694 120.444 16.3564 120.444 17.3836C120.445 18.4108 120.047 19.3981 119.334 20.1376C118.621 20.8771 117.649 21.311 116.622 21.348" fill="#FF7A59"/>
</g>
<g clip-path="url(#clip1_0_1)">
<mask id="mask0_0_1" style="mask-type:luminance" maskUnits="userSpaceOnUse" x="0" y="92" width="99" height="69">
<path d="M0 92H99V161H0V92Z" fill="#00A1E0"/>
</mask>
<g mask="url(#mask0_0_1)">
<path fill-rule="evenodd" clip-rule="evenodd" d="M41.1068 99.5537C44.3025 96.2344 48.7502 94.179 53.6638 94.179C60.2153 94.179 65.8932 97.8105 68.9506 103.222C71.6645 102.011 74.604 101.386 77.5767 101.388C89.3693 101.388 98.9417 111.011 98.9417 122.887C98.9417 134.762 89.3693 144.386 77.5767 144.386C76.1354 144.386 74.7304 144.241 73.3546 143.968C70.6794 148.725 65.5656 151.957 59.7421 151.957C57.3712 151.962 55.0306 151.425 52.8995 150.389C50.1879 156.744 43.873 161.211 36.5208 161.211C28.841 161.211 22.3259 156.381 19.8145 149.59C18.6968 149.825 17.5574 149.943 16.4151 149.943C7.2794 149.943 -0.109207 142.462 -0.109207 133.274C-0.109207 127.1 3.21748 121.725 8.15292 118.82C7.10587 116.413 6.56691 113.817 6.56965 111.194C6.56965 100.589 15.1958 92.0189 25.8237 92.0189C32.0476 92.0189 37.6163 94.9786 41.1105 99.5726" fill="#00A1E0"/>
</g>
<path fill-rule="evenodd" clip-rule="evenodd" d="M14.3186 127.88C14.2563 128.042 14.3408 128.076 14.3608 128.104C14.5468 128.239 14.7357 128.336 14.925 128.445C15.9368 128.979 16.8904 129.135 17.8877 129.135C19.9186 129.135 21.1816 128.057 21.1816 126.321V126.287C21.1816 124.682 19.7548 124.097 18.4227 123.679L18.2484 123.623C17.2402 123.297 16.3703 123.013 16.3703 122.352V122.318C16.3703 121.752 16.8798 121.334 17.666 121.334C18.5395 121.334 19.5805 121.624 20.2466 121.991C20.2466 121.991 20.4438 122.119 20.5155 121.929C20.5545 121.826 20.8941 120.919 20.9305 120.817C20.969 120.711 20.9013 120.631 20.8318 120.589C20.0675 120.124 19.012 119.808 17.9201 119.808L17.7173 119.809C15.8574 119.809 14.5581 120.931 14.5581 122.537V122.571C14.5581 124.263 15.9921 124.815 17.3315 125.197L17.547 125.263C18.5224 125.563 19.3668 125.823 19.3668 126.505V126.54C19.3668 127.168 18.8173 127.636 17.9364 127.636C17.5939 127.636 16.5024 127.631 15.3195 126.885C15.1765 126.801 15.0949 126.742 14.9846 126.674C14.9264 126.639 14.7808 126.576 14.7175 126.766L14.3171 127.877M44.0535 127.877C43.9913 128.039 44.0757 128.073 44.0965 128.102C44.2817 128.236 44.4714 128.333 44.6606 128.443C45.6725 128.976 46.6261 129.133 47.6233 129.133C49.6543 129.133 50.9173 128.054 50.9173 126.318V126.284C50.9173 124.679 49.4941 124.094 48.1584 123.676L47.984 123.62C46.9758 123.294 46.1059 123.01 46.1059 122.349V122.315C46.1059 121.749 46.6155 121.331 47.4017 121.331C48.2752 121.331 49.3125 121.621 49.9822 121.989C49.9822 121.989 50.1795 122.116 50.2516 121.926C50.2902 121.823 50.6301 120.916 50.6629 120.814C50.7018 120.708 50.6337 120.628 50.5646 120.586C49.8003 120.122 48.7447 119.806 47.6528 119.806L47.4497 119.806C45.5898 119.806 44.2905 120.928 44.2905 122.534V122.568C44.2905 124.26 45.7245 124.812 47.0639 125.194L47.279 125.261C48.2581 125.56 49.0989 125.82 49.0989 126.503V126.537C49.0989 127.165 48.5493 127.633 47.6685 127.633C47.3252 127.633 46.2308 127.628 45.0515 126.882C44.9085 126.799 44.8248 126.741 44.7163 126.671C44.6795 126.648 44.5081 126.581 44.4495 126.763L44.0492 127.874M64.3587 124.475C64.3587 125.456 64.1753 126.229 63.8164 126.777C63.4582 127.319 62.9174 127.584 62.164 127.584C61.4106 127.584 60.8719 127.321 60.5188 126.781C60.1632 126.236 59.9838 125.459 59.9838 124.479C59.9838 123.498 60.1643 122.728 60.5188 122.187C60.8711 121.65 61.4069 121.392 62.164 121.392C62.921 121.392 63.4597 121.652 63.8164 122.187C64.1775 122.728 64.3587 123.498 64.3587 124.479M66.0548 122.659C65.8878 122.096 65.629 121.602 65.2832 121.188C64.9371 120.774 64.5007 120.44 63.9802 120.201C63.4633 119.959 62.8519 119.838 62.1603 119.838C61.4688 119.838 60.861 119.96 60.3405 120.201C59.8236 120.442 59.3832 120.774 59.0375 121.188C58.6924 121.602 58.4333 122.096 58.2658 122.659C58.1002 123.219 58.0162 123.829 58.0162 124.479C58.0162 125.129 58.1002 125.739 58.2658 126.298C58.4322 126.861 58.6917 127.355 59.0375 127.769C59.3836 128.183 59.8236 128.513 60.3405 128.749C60.861 128.985 61.4724 129.105 62.1603 129.105C62.8482 129.105 63.4597 128.985 63.9765 128.749C64.4934 128.514 64.9338 128.183 65.2796 127.769C65.625 127.355 65.8837 126.861 66.0512 126.298C66.2164 125.739 66.3005 125.129 66.3005 124.479C66.3005 123.832 66.2164 123.219 66.0512 122.659M79.9913 127.308C79.9356 127.143 79.7747 127.205 79.7747 127.205C79.5283 127.299 79.2651 127.386 78.9849 127.43C78.7024 127.474 78.388 127.497 78.0567 127.497C77.2378 127.497 76.5827 127.253 76.1168 126.77C75.6473 126.287 75.3852 125.51 75.3888 124.457C75.3914 123.498 75.6236 122.779 76.0404 122.227C76.4516 121.682 77.0849 121.399 77.9221 121.399C78.6209 121.399 79.1559 121.48 79.7165 121.655C79.7165 121.655 79.8493 121.713 79.913 121.538C80.0619 121.128 80.1718 120.834 80.3316 120.383C80.3767 120.254 80.266 120.2 80.2256 120.184C80.0058 120.099 79.4868 119.958 79.0937 119.899C78.7261 119.843 78.3002 119.814 77.8198 119.814C77.1064 119.814 76.4731 119.936 75.9308 120.177C75.3885 120.417 74.9299 120.75 74.5659 121.164C74.2019 121.578 73.9253 122.072 73.7397 122.635C73.5559 123.195 73.4631 123.808 73.4631 124.458C73.4631 125.86 73.8416 126.997 74.5914 127.828C75.3412 128.664 76.4695 129.085 77.9399 129.085C78.8098 129.085 79.7015 128.91 80.3421 128.656C80.3421 128.656 80.4644 128.598 80.4113 128.455L79.9927 127.308M82.9591 123.531C83.0402 122.986 83.1898 122.532 83.425 122.18C83.7769 121.642 84.313 121.348 85.0665 121.348C85.8199 121.348 86.3185 121.644 86.6752 122.18C86.9118 122.534 87.0152 123.004 87.0537 123.531L82.9409 123.53L82.9591 123.531ZM88.6734 122.332C88.5289 121.791 88.1711 121.243 87.9382 120.992C87.5669 120.597 87.2066 120.317 86.8463 120.164C86.3261 119.944 85.7664 119.83 85.2011 119.831C84.4841 119.831 83.8326 119.952 83.3048 120.198C82.7771 120.446 82.333 120.783 81.9836 121.204C81.6346 121.625 81.3722 122.123 81.2047 122.693C81.0373 123.256 80.9529 123.873 80.9529 124.52C80.9529 125.181 81.0406 125.794 81.2131 126.35C81.3874 126.909 81.6681 127.4 82.0466 127.806C82.4251 128.217 82.9092 128.536 83.4916 128.761C84.0703 128.985 84.7727 129.101 85.5771 129.098C87.2368 129.093 88.1103 128.724 88.467 128.524C88.5307 128.489 88.5908 128.427 88.5158 128.25L88.1409 127.201C88.0834 127.044 87.9247 127.101 87.9247 127.101C87.5134 127.254 86.9311 127.53 85.5662 127.526C84.6745 127.524 84.0157 127.262 83.6007 126.85C83.1785 126.429 82.9674 125.815 82.9347 124.944L88.6854 124.948C88.6854 124.948 88.8368 124.947 88.8525 124.799C88.8587 124.738 89.0494 123.623 88.681 122.333L88.6734 122.332ZM36.9896 123.531C37.0707 122.986 37.2207 122.532 37.4555 122.18C37.8078 121.642 38.3435 121.348 39.097 121.348C39.8504 121.348 40.349 121.644 40.7057 122.18C40.9419 122.534 41.0453 123.004 41.0842 123.531L36.9714 123.53L36.9896 123.531ZM42.7039 122.332C42.5598 121.791 42.2016 121.243 41.9687 120.992C41.5974 120.597 41.2371 120.317 40.8768 120.164C40.3566 119.944 39.7969 119.83 39.2316 119.831C38.5146 119.831 37.8631 119.952 37.3353 120.198C36.8076 120.446 36.3635 120.783 36.0141 121.204C35.6658 121.625 35.4027 122.123 35.2352 122.693C35.0682 123.256 34.9841 123.873 34.9841 124.52C34.9841 125.181 35.0711 125.794 35.2447 126.35C35.4187 126.909 35.6997 127.4 36.0746 127.806C36.4531 128.217 36.9372 128.536 37.5195 128.761C38.0982 128.985 38.7971 129.101 39.6051 129.098C41.2648 129.093 42.1383 128.724 42.495 128.524C42.5583 128.489 42.6187 128.427 42.5434 128.25L42.1685 127.201C42.1106 127.044 41.952 127.101 41.952 127.101C41.5407 127.254 40.9583 127.53 39.5934 127.526C38.7053 127.524 38.0429 127.262 37.628 126.85C37.2058 126.429 36.9947 125.815 36.9619 124.944L42.7127 124.948C42.7127 124.948 42.8641 124.947 42.8797 124.799C42.8859 124.738 43.0766 123.623 42.7079 122.333L42.7039 122.332ZM24.5782 127.271C24.3529 127.092 24.3216 127.048 24.247 126.931C24.133 126.756 24.0748 126.507 24.0748 126.187C24.0748 125.686 24.2422 125.323 24.588 125.079C24.5844 125.08 25.083 124.651 26.255 124.665C26.7766 124.675 27.2971 124.719 27.8128 124.798V127.402H27.8135C27.8135 127.402 27.0856 127.558 26.263 127.608C25.0947 127.678 24.5778 127.272 24.5815 127.273L24.5782 127.271ZM26.8639 123.24C26.631 123.223 26.3289 123.215 25.9685 123.215C25.4772 123.215 25.0004 123.276 24.5563 123.396C24.1087 123.516 23.7047 123.703 23.3589 123.951C23.0122 124.198 22.727 124.521 22.5254 124.896C22.3219 125.273 22.2182 125.716 22.2182 126.217C22.2182 126.726 22.3066 127.165 22.4813 127.525C22.6525 127.881 22.9103 128.19 23.2311 128.422C23.5503 128.654 23.9445 128.825 24.3995 128.927C24.8508 129.029 25.3604 129.081 25.9209 129.081C26.5105 129.081 27.0965 129.032 27.6643 128.936C28.1479 128.853 28.6296 128.76 29.1093 128.656C29.3007 128.612 29.5133 128.554 29.5133 128.554C29.6552 128.518 29.6443 128.367 29.6443 128.367L29.641 123.138C29.641 121.99 29.3338 121.137 28.7274 120.61C28.1233 120.083 27.2388 119.818 26.0923 119.818C25.6628 119.818 24.9676 119.876 24.5527 119.96C24.5527 119.96 23.3006 120.202 22.7838 120.606C22.7838 120.606 22.6702 120.676 22.7321 120.834L23.1398 121.923C23.1904 122.064 23.3283 122.016 23.3283 122.016C23.3283 122.016 23.3716 121.999 23.4226 121.969C24.5254 121.37 25.9231 121.388 25.9231 121.388C26.5418 121.388 27.0222 121.513 27.3425 121.758C27.6559 121.998 27.8157 122.361 27.8157 123.124V123.366C27.3243 123.295 26.8694 123.254 26.8694 123.254L26.8639 123.24ZM73.0882 120.288C73.0965 120.269 73.1008 120.248 73.1009 120.227C73.101 120.206 73.0969 120.186 73.0889 120.166C73.0809 120.147 73.069 120.13 73.0541 120.115C73.0391 120.101 73.0214 120.089 73.0019 120.082C72.904 120.045 72.4159 119.942 72.041 119.918C71.3204 119.873 70.92 119.995 70.5597 120.156C70.2037 120.316 69.8099 120.574 69.5915 120.871L69.5908 120.174C69.5908 120.078 69.5227 120.001 69.4259 120.001H67.9555C67.8601 120.001 67.791 120.078 67.791 120.174V128.708C67.7911 128.754 67.8095 128.799 67.8421 128.831C67.8748 128.864 67.9191 128.882 67.9653 128.882H69.4721C69.5183 128.882 69.5626 128.864 69.5952 128.831C69.6278 128.799 69.6461 128.754 69.6461 128.708V124.423C69.6461 123.849 69.7094 123.279 69.8357 122.92C69.9602 122.564 70.1295 122.28 70.338 122.077C70.537 121.881 70.7804 121.735 71.0478 121.652C71.2986 121.58 71.5584 121.544 71.8194 121.544C72.1197 121.544 72.4491 121.621 72.4491 121.621C72.5597 121.633 72.6212 121.566 72.6587 121.466C72.7573 121.204 73.0372 120.42 73.0918 120.264" fill="#FFFFFE"/>
<path fill-rule="evenodd" clip-rule="evenodd" d="M59.0146 116.349C58.8283 116.293 58.6388 116.248 58.4471 116.215C58.1893 116.172 57.9282 116.152 57.6668 116.154C56.6284 116.154 55.8098 116.447 55.2351 117.025C54.6644 117.599 54.276 118.473 54.0813 119.623L54.0111 120.011H52.7077C52.7077 120.011 52.5486 120.005 52.5151 120.178L52.3011 121.369C52.2862 121.483 52.3353 121.555 52.4882 121.554H53.757L52.4696 128.724C52.3688 129.301 52.2535 129.776 52.1257 130.136C51.9998 130.491 51.8767 130.757 51.7253 130.951C51.5786 131.138 51.4396 131.275 51.1998 131.355C51.0018 131.422 50.7739 131.452 50.5242 131.452C50.3852 131.452 50.2003 131.429 50.0638 131.402C49.9273 131.375 49.8563 131.345 49.7541 131.302C49.7541 131.302 49.6052 131.245 49.5466 131.394C49.4989 131.516 49.1608 132.443 49.1208 132.558C49.08 132.672 49.1371 132.761 49.2092 132.787C49.3781 132.847 49.5037 132.885 49.7337 132.94C50.0532 133.015 50.3226 133.019 50.5748 133.019C51.1033 133.019 51.5848 132.945 51.9841 132.802C52.3859 132.657 52.7357 132.404 53.0451 132.062C53.3796 131.694 53.59 131.308 53.7912 130.781C53.9903 130.259 54.1599 129.612 54.2957 128.857L55.5892 121.554H57.4804C57.4804 121.554 57.6399 121.56 57.673 121.387L57.887 120.196C57.9019 120.082 57.8531 120.011 57.6995 120.011H55.864C55.8731 119.97 55.9565 119.326 56.1672 118.719C56.2571 118.46 56.4264 118.252 56.5698 118.108C56.7037 117.972 56.8686 117.869 57.0506 117.81C57.2501 117.748 57.458 117.718 57.6668 117.721C57.8397 117.721 58.0093 117.742 58.1385 117.769C58.3165 117.806 58.3856 117.826 58.4322 117.84C58.6193 117.897 58.6444 117.842 58.6812 117.752L59.1201 116.549C59.1652 116.419 59.0553 116.365 59.0146 116.349ZM33.3641 128.739C33.3641 128.835 33.2957 128.913 33.1996 128.913H31.6771C31.5806 128.913 31.5122 128.835 31.5122 128.739V116.512C31.5122 116.417 31.5806 116.339 31.6771 116.339H33.1996C33.2957 116.339 33.3641 116.417 33.3641 116.512V128.739Z" fill="#FFFFFE"/>
</g>
<g clip-path="url(#clip2_0_1)">
<path d="M203.974 60.5403V88.0489L200.209 91.755V64.8541L203.974 60.5401" fill="#E79224"/>
<path d="M200.269 64.8543H175.334V91.7881H200.269V64.8543Z" fill="url(#paint0_linear_0_1)"/>
<path d="M179.239 60.5591L175.334 64.8549H200.269L203.973 60.5409L179.239 60.5591" fill="#FEF26F"/>
<path d="M148.357 61.7386L172.884 58.2993L170.832 64.2318L147.596 67.949L147.695 63.7084L148.357 61.7386Z" fill="#91C9ED"/>
<path d="M170.832 64.2308L174.23 88.3606L150.045 91.7885L146.779 68.4608L148.191 67.3476L170.833 64.2315" fill="url(#paint1_linear_0_1)"/>
<path d="M172.885 58.2986L172.904 58.4443L176.085 83.1521L174.231 88.3606L170.833 64.2308" fill="#0B9AD6"/>
<mask id="mask1_0_1" style="mask-type:luminance" maskUnits="userSpaceOnUse" x="117" y="59" width="33" height="33">
<path d="M127.641 59.6803L149.355 69.5636L139.557 92L117.843 82.1173L127.641 59.6793" fill="white"/>
</mask>
<g mask="url(#mask1_0_1)">
<path d="M89 51.9999H203.974V91.9917H89V51.9999Z" fill="url(#paint2_linear_0_1)"/>
</g>
<path d="M125.386 51.9999L127.64 59.68L149.354 69.5633L147.529 62.2247L125.386 51.9999Z" fill="#98D0A0"/>
<path d="M125.386 51.9999L116.647 72.923L117.842 82.1177L127.64 59.68L125.386 51.9999Z" fill="#68BF6B"/>
<path d="M113.272 64.1964L116.851 87.9408L92.8538 91.7364L88.9995 67.9465L113.271 64.1976" fill="url(#paint3_linear_0_1)"/>
<path d="M89 67.9449L90.6852 59.4674L114.915 55.5497L113.273 64.1961L89 67.9449Z" fill="#EF463D"/>
<path d="M114.915 55.5495L118.467 79.523L116.852 87.9397L113.273 64.1959L114.915 55.5495Z" fill="#761116"/>
<path d="M166.718 68.855C166.609 68.1057 166.355 67.5339 165.944 67.1594C165.617 66.8602 165.206 66.709 164.737 66.7098C164.618 66.7098 164.495 66.7195 164.367 66.7383C163.739 66.8293 163.258 67.1227 162.963 67.607C162.749 67.957 162.645 68.3792 162.645 68.8648C162.645 69.0507 162.66 69.2467 162.69 69.4522L163.573 75.7307L156.619 76.763L155.737 70.4832C155.63 69.7533 155.38 69.1873 154.974 68.8026C154.647 68.4907 154.238 68.3312 153.778 68.3323C153.669 68.3323 153.557 68.3411 153.443 68.358C152.789 68.4531 152.29 68.741 151.988 69.2182C151.768 69.5618 151.662 69.986 151.662 70.4793C151.662 70.6687 151.678 70.8689 151.708 71.0801L154.088 87.4089C154.197 88.1597 154.457 88.7302 154.885 89.0989C155.219 89.387 155.637 89.5319 156.116 89.5309C156.247 89.5309 156.383 89.5206 156.524 89.4996C157.123 89.4122 157.585 89.1201 157.864 88.6363C158.064 88.2925 158.161 87.8794 158.161 87.4067C158.161 87.2174 158.146 87.0191 158.115 86.8114L157.143 80.3601L164.097 79.3292L165.07 85.7804C165.177 86.5213 165.434 87.0885 165.856 87.4621C166.191 87.7594 166.606 87.909 167.075 87.9082C167.196 87.9082 167.32 87.899 167.447 87.88C168.073 87.7883 168.552 87.4992 168.838 87.0188C169.044 86.6761 169.143 86.2605 169.143 85.7815C169.143 85.5919 169.128 85.3925 169.098 85.1831L166.718 68.855ZM138.437 77.8868C137.619 79.8308 136.538 81.1645 135.202 81.9034C134.486 82.2992 133.752 82.495 132.993 82.4953C132.333 82.4953 131.653 82.3467 130.951 82.0469C129.431 81.3933 128.484 80.343 128.075 78.8616C127.938 78.3646 127.869 77.8422 127.869 77.2931C127.869 76.2058 128.139 75.013 128.685 73.7152C129.522 71.7251 130.614 70.3675 131.951 69.624C132.666 69.2269 133.4 69.0297 134.162 69.0297C134.829 69.0297 135.518 69.1802 136.232 69.4859C137.742 70.1339 138.679 71.1866 139.081 72.6747C139.212 73.1613 139.278 73.6733 139.278 74.2125C139.278 75.3228 139 76.5479 138.437 77.8868ZM140.815 68.113C139.962 67.2054 138.926 66.4916 137.711 65.9717C136.504 65.4547 135.285 65.1969 134.056 65.1969L133.999 65.1972C132.751 65.2053 131.517 65.4856 130.302 66.0357V66.0353C129.029 66.594 127.92 67.3758 126.979 68.3799C126.038 69.3834 125.272 70.5905 124.68 71.9966C124.096 73.3864 123.772 74.7766 123.712 76.1671C123.705 76.3244 123.702 76.4818 123.702 76.6386C123.702 77.8658 123.911 79.0681 124.327 80.2428C124.77 81.4828 125.422 82.5563 126.282 83.4611C127.141 84.3658 128.199 85.0859 129.45 85.62V85.6196C130.646 86.1325 131.862 86.3891 133.092 86.3885H133.124C134.365 86.3827 135.596 86.1143 136.814 85.5869L136.815 85.5864L136.815 85.586C138.096 85.0097 139.213 84.2173 140.165 83.2145C141.117 82.2107 141.886 81.007 142.474 79.609C143.062 78.2111 143.383 76.8193 143.435 75.4348C143.44 75.3014 143.443 75.1682 143.443 75.0354C143.443 73.7905 143.225 72.5707 142.788 71.3774C142.327 70.1095 141.668 69.0203 140.815 68.113ZM110.694 84.1599C110.505 83.9319 110.25 83.7635 109.94 83.654C109.621 83.5417 109.235 83.4877 108.781 83.4877C108.353 83.4877 107.864 83.5358 107.312 83.6312L100.978 84.7232C101.045 84.2308 101.287 83.5837 101.715 82.7952C102.192 81.9117 102.896 80.8505 103.825 79.6152L103.826 79.6146C104.145 79.1846 104.388 78.8561 104.557 78.6293C104.678 78.4781 104.846 78.2559 105.065 77.962C106.514 76.0446 107.41 74.4835 107.754 73.2582C107.951 72.5635 108.071 71.8634 108.114 71.1584C108.126 70.9654 108.131 70.7738 108.131 70.5836C108.131 70.0785 108.09 69.5809 108.007 69.0914C107.932 68.6453 107.823 68.2742 107.677 67.9764C107.531 67.6793 107.346 67.4532 107.117 67.3107C106.859 67.1523 106.496 67.0851 106.021 67.0843C105.629 67.0843 105.159 67.1323 104.609 67.2269L97.2896 68.4902C96.4032 68.6434 95.7486 68.9066 95.331 69.3032C94.9992 69.6173 94.8277 70.0241 94.8294 70.4911C94.8294 70.6129 94.8405 70.739 94.8628 70.8695C94.9658 71.4969 95.2899 71.957 95.8124 72.191C96.1208 72.3313 96.4935 72.3984 96.9285 72.3984C97.2248 72.3984 97.5503 72.3672 97.9059 72.3061L104.032 71.264C104.043 71.3731 104.05 71.4822 104.05 71.5902C104.05 71.9764 103.984 72.3534 103.851 72.7247C103.669 73.2361 103.215 73.9674 102.49 74.8969C102.285 75.1507 101.971 75.546 101.547 76.0818C99.8953 78.1006 98.712 79.8219 97.996 81.2536C97.996 81.2542 97.996 81.2542 97.9955 81.2549C97.9955 81.2549 97.9955 81.2555 97.9954 81.2555C97.4871 82.2409 97.1343 83.2117 96.9408 84.1672C96.828 84.7246 96.771 85.2597 96.771 85.7732C96.771 86.1408 96.8002 86.4967 96.8588 86.8412C96.9426 87.3354 97.0636 87.7431 97.2265 88.0661C97.3894 88.3877 97.5972 88.6282 97.8537 88.7704C98.0926 88.9011 98.4435 88.9529 98.9266 88.9543C99.5399 88.9543 100.365 88.8632 101.41 88.6833L108.052 87.5378C109.228 87.3337 110.046 87.0508 110.521 86.657C110.901 86.3422 111.098 85.9102 111.096 85.4013C111.096 85.2725 111.084 85.1395 111.06 85.0012C111.005 84.6708 110.883 84.3875 110.694 84.1599ZM105.065 77.9615L105.065 77.9612C105.065 77.9615 105.065 77.9618 105.065 77.962H105.064L105.065 77.9615ZM191.338 83.4194C190.383 84.5841 189.096 85.1621 187.435 85.164C185.763 85.1621 184.471 84.5859 183.511 83.4272C182.553 82.2676 182.068 80.6732 182.068 78.6268C182.068 76.5414 182.551 74.9232 183.504 73.7545C184.459 72.5862 185.755 72.0061 187.435 72.004C189.096 72.0061 190.382 72.5857 191.338 73.7545C192.291 74.9232 192.775 76.5414 192.775 78.6268C192.775 80.6637 192.292 82.2563 191.338 83.4194ZM196.463 74.5438C195.969 73.2932 195.239 72.1719 194.273 71.1825C193.348 70.2315 192.309 69.5137 191.162 69.0321C190.013 68.5501 188.771 68.3094 187.437 68.3098C186.094 68.3094 184.84 68.5499 183.683 69.0317C182.526 69.5136 181.487 70.2318 180.571 71.183C179.607 72.1625 178.879 73.2798 178.396 74.53C177.913 75.7815 177.671 77.1462 177.671 78.6227C177.671 80.0802 177.914 81.4403 178.404 82.6998C178.892 83.9595 179.615 85.0905 180.571 86.0891C181.468 87.023 182.495 87.7297 183.647 88.2063C184.8 88.6825 186.065 88.921 187.437 88.921C188.76 88.921 190.001 88.6825 191.153 88.2063C192.306 87.73 193.347 87.0238 194.272 86.0904C195.239 85.0908 195.969 83.9633 196.463 82.7074C196.957 81.4529 197.203 80.0899 197.203 78.6227C197.203 77.1556 196.957 75.7949 196.463 74.5438Z" fill="white"/>
</g>
<defs>
<linearGradient id="paint0_linear_0_1" x1="187.802" y1="65.2271" x2="187.802" y2="90.9641" gradientUnits="userSpaceOnUse">
<stop stop-color="#FFE500"/>
<stop offset="1" stop-color="#FCB822"/>
</linearGradient>
<linearGradient id="paint1_linear_0_1" x1="148.018" y1="67.9496" x2="173.203" y2="87.9996" gradientUnits="userSpaceOnUse">
<stop stop-color="#168CCC"/>
<stop offset="1" stop-color="#00649E"/>
</linearGradient>
<linearGradient id="paint2_linear_0_1" x1="133.598" y1="68.6577" x2="133.598" y2="91.2053" gradientUnits="userSpaceOnUse">
<stop stop-color="#25A149"/>
<stop offset="1" stop-color="#008A52"/>
</linearGradient>
<linearGradient id="paint3_linear_0_1" x1="101.173" y1="66.4505" x2="105.082" y2="89.8488" gradientUnits="userSpaceOnUse">
<stop stop-color="#D92231"/>
<stop offset="1" stop-color="#BA2234"/>
</linearGradient>
<clipPath id="clip0_0_1">
<rect width="106" height="31" fill="white" transform="translate(28)"/>
</clipPath>
<clipPath id="clip1_0_1">
<rect width="99" height="69" fill="white" transform="translate(0 92)"/>
</clipPath>
<clipPath id="clip2_0_1">
<rect width="115" height="40" fill="white" transform="translate(89 52)"/>
</clipPath>
</defs>
</svg>
