<svg width="77" height="36" viewBox="0 0 77 36" fill="none" xmlns="http://www.w3.org/2000/svg">
<path d="M9.67864 6.86C9.19864 6.236 8.50264 5.924 7.59064 5.924C6.67864 5.924 5.97864 6.236 5.49064 6.86C5.01064 7.484 4.77064 8.404 4.77064 9.62C4.77064 10.836 5.01064 11.756 5.49064 12.38C5.97864 13.004 6.67864 13.316 7.59064 13.316C8.50264 13.316 9.19864 13.004 9.67864 12.38C10.1666 11.756 10.4106 10.836 10.4106 9.62C10.4106 8.404 10.1666 7.484 9.67864 6.86ZM10.3746 12.944C9.70264 13.728 8.77464 14.12 7.59064 14.12C6.40664 14.12 5.47464 13.728 4.79464 12.944C4.12264 12.152 3.78664 11.044 3.78664 9.62C3.78664 8.196 4.12264 7.092 4.79464 6.308C5.47464 5.516 6.40664 5.12 7.59064 5.12C8.77464 5.12 9.70264 5.516 10.3746 6.308C11.0546 7.092 11.3946 8.196 11.3946 9.62C11.3946 11.044 11.0546 12.152 10.3746 12.944ZM13.853 6.116V9.644C13.853 9.708 13.889 9.748 13.961 9.764C14.345 9.82 14.777 9.848 15.257 9.848C16.049 9.848 16.653 9.676 17.069 9.332C17.493 8.988 17.705 8.496 17.705 7.856C17.705 7.216 17.497 6.732 17.081 6.404C16.673 6.068 16.065 5.9 15.257 5.9C14.825 5.9 14.393 5.932 13.961 5.996C13.889 6.012 13.853 6.052 13.853 6.116ZM13.709 13.856C13.621 13.952 13.509 14 13.373 14C13.237 14 13.121 13.952 13.025 13.856C12.937 13.76 12.893 13.648 12.893 13.52V5.984C12.893 5.792 12.957 5.624 13.085 5.48C13.213 5.328 13.373 5.24 13.565 5.216C14.181 5.152 14.769 5.12 15.329 5.12C16.417 5.12 17.241 5.352 17.801 5.816C18.369 6.272 18.653 6.928 18.653 7.784C18.653 8.712 18.369 9.416 17.801 9.896C17.233 10.376 16.409 10.616 15.329 10.616C14.897 10.616 14.441 10.596 13.961 10.556C13.889 10.556 13.853 10.584 13.853 10.64V13.52C13.853 13.648 13.805 13.76 13.709 13.856ZM20.7724 14C20.5884 14 20.4284 13.932 20.2924 13.796C20.1564 13.66 20.0884 13.5 20.0884 13.316V5.924C20.0884 5.74 20.1564 5.58 20.2924 5.444C20.4284 5.308 20.5884 5.24 20.7724 5.24H24.8044C24.9164 5.24 25.0124 5.28 25.0924 5.36C25.1724 5.44 25.2124 5.532 25.2124 5.636C25.2124 5.74 25.1724 5.836 25.0924 5.924C25.0124 6.004 24.9164 6.044 24.8044 6.044H21.1564C21.0844 6.044 21.0484 6.076 21.0484 6.14V8.804C21.0484 8.868 21.0844 8.9 21.1564 8.9H24.5884C24.7004 8.9 24.7924 8.94 24.8644 9.02C24.9364 9.092 24.9724 9.18 24.9724 9.284C24.9724 9.388 24.9364 9.48 24.8644 9.56C24.7924 9.632 24.7004 9.668 24.5884 9.668H21.1564C21.0844 9.668 21.0484 9.704 21.0484 9.776V13.1C21.0484 13.164 21.0844 13.196 21.1564 13.196H24.8044C24.9164 13.196 25.0124 13.24 25.0924 13.328C25.1724 13.408 25.2124 13.5 25.2124 13.604C25.2124 13.708 25.1724 13.8 25.0924 13.88C25.0124 13.96 24.9164 14 24.8044 14H20.7724ZM27.9233 13.868C27.8353 13.956 27.7273 14 27.5993 14C27.4713 14 27.3593 13.956 27.2633 13.868C27.1753 13.78 27.1313 13.668 27.1313 13.532V5.732C27.1313 5.596 27.1793 5.48 27.2753 5.384C27.3713 5.288 27.4873 5.24 27.6233 5.24C27.9513 5.24 28.1993 5.384 28.3673 5.672L32.3513 12.428C32.3513 12.436 32.3593 12.44 32.3753 12.44C32.3833 12.44 32.3873 12.436 32.3873 12.428V5.708C32.3873 5.572 32.4313 5.46 32.5193 5.372C32.6153 5.284 32.7273 5.24 32.8553 5.24C32.9833 5.24 33.0913 5.284 33.1793 5.372C33.2753 5.46 33.3233 5.572 33.3233 5.708V13.508C33.3233 13.644 33.2753 13.76 33.1793 13.856C33.0833 13.952 32.9673 14 32.8313 14C32.5033 14 32.2553 13.856 32.0873 13.568L28.1033 6.812C28.1033 6.804 28.0953 6.8 28.0793 6.8C28.0713 6.8 28.0673 6.804 28.0673 6.812V13.532C28.0673 13.668 28.0193 13.78 27.9233 13.868ZM36.1739 13.856C36.0859 13.952 35.9739 14 35.8379 14C35.7019 14 35.5859 13.952 35.4899 13.856C35.4019 13.76 35.3579 13.648 35.3579 13.52V5.924C35.3579 5.74 35.4259 5.58 35.5619 5.444C35.6979 5.308 35.8579 5.24 36.0419 5.24H39.9539C40.0659 5.24 40.1619 5.28 40.2419 5.36C40.3219 5.44 40.3619 5.532 40.3619 5.636C40.3619 5.74 40.3219 5.836 40.2419 5.924C40.1619 6.004 40.0659 6.044 39.9539 6.044H36.4259C36.3539 6.044 36.3179 6.076 36.3179 6.14V8.924C36.3179 8.988 36.3539 9.02 36.4259 9.02H39.7379C39.8499 9.02 39.9419 9.06 40.0139 9.14C40.0859 9.212 40.1219 9.3 40.1219 9.404C40.1219 9.508 40.0859 9.6 40.0139 9.68C39.9419 9.752 39.8499 9.788 39.7379 9.788H36.4259C36.3539 9.788 36.3179 9.824 36.3179 9.896V13.52C36.3179 13.648 36.2699 13.76 36.1739 13.856ZM42.9091 14C42.7251 14 42.5651 13.932 42.4291 13.796C42.2931 13.66 42.2251 13.5 42.2251 13.316V5.744C42.2251 5.608 42.2731 5.492 42.3691 5.396C42.4731 5.292 42.5931 5.24 42.7291 5.24C42.8651 5.24 42.9811 5.292 43.0771 5.396C43.1811 5.492 43.2331 5.608 43.2331 5.744V13.076C43.2331 13.148 43.2651 13.184 43.3291 13.184H47.0611C47.1731 13.184 47.2691 13.224 47.3491 13.304C47.4291 13.384 47.4691 13.48 47.4691 13.592C47.4691 13.704 47.4291 13.8 47.3491 13.88C47.2691 13.96 47.1731 14 47.0611 14H42.9091ZM53.9638 6.86C53.4838 6.236 52.7878 5.924 51.8758 5.924C50.9638 5.924 50.2638 6.236 49.7758 6.86C49.2958 7.484 49.0558 8.404 49.0558 9.62C49.0558 10.836 49.2958 11.756 49.7758 12.38C50.2638 13.004 50.9638 13.316 51.8758 13.316C52.7878 13.316 53.4838 13.004 53.9638 12.38C54.4518 11.756 54.6958 10.836 54.6958 9.62C54.6958 8.404 54.4518 7.484 53.9638 6.86ZM54.6598 12.944C53.9878 13.728 53.0598 14.12 51.8758 14.12C50.6918 14.12 49.7598 13.728 49.0798 12.944C48.4078 12.152 48.0718 11.044 48.0718 9.62C48.0718 8.196 48.4078 7.092 49.0798 6.308C49.7598 5.516 50.6918 5.12 51.8758 5.12C53.0598 5.12 53.9878 5.516 54.6598 6.308C55.3398 7.092 55.6798 8.196 55.6798 9.62C55.6798 11.044 55.3398 12.152 54.6598 12.944ZM58.1798 13.412L56.4998 5.72C56.4758 5.592 56.4998 5.48 56.5718 5.384C56.6518 5.288 56.7558 5.24 56.8838 5.24C57.0278 5.24 57.1518 5.288 57.2558 5.384C57.3678 5.472 57.4398 5.584 57.4718 5.72L58.8998 12.956C58.8998 12.964 58.9038 12.968 58.9118 12.968C58.9198 12.968 58.9238 12.964 58.9238 12.956L60.3998 5.852C60.4318 5.676 60.5158 5.532 60.6518 5.42C60.7958 5.3 60.9558 5.24 61.1318 5.24C61.3158 5.24 61.4798 5.3 61.6238 5.42C61.7678 5.532 61.8598 5.676 61.8998 5.852L63.3758 12.956C63.3758 12.964 63.3798 12.968 63.3878 12.968C63.3958 12.968 63.3998 12.964 63.3998 12.956L64.8278 5.708C64.8518 5.572 64.9158 5.46 65.0198 5.372C65.1238 5.284 65.2478 5.24 65.3918 5.24C65.5118 5.24 65.6118 5.288 65.6918 5.384C65.7718 5.48 65.7998 5.588 65.7758 5.708L64.0838 13.412C64.0438 13.588 63.9558 13.732 63.8198 13.844C63.6838 13.948 63.5278 14 63.3518 14C63.1758 14 63.0158 13.948 62.8718 13.844C62.7358 13.732 62.6518 13.588 62.6198 13.412L61.1438 6.284C61.1438 6.276 61.1398 6.272 61.1318 6.272C61.1238 6.272 61.1198 6.276 61.1198 6.284L59.6438 13.412C59.6038 13.588 59.5158 13.732 59.3798 13.844C59.2438 13.948 59.0878 14 58.9118 14C58.7358 14 58.5758 13.948 58.4318 13.844C58.2958 13.732 58.2118 13.588 58.1798 13.412ZM69.2645 9.884C67.6085 9.324 66.7805 8.448 66.7805 7.256C66.7805 6.584 66.9965 6.06 67.4285 5.684C67.8605 5.308 68.4645 5.12 69.2405 5.12C69.9605 5.12 70.6285 5.228 71.2445 5.444C71.3725 5.492 71.4765 5.576 71.5565 5.696C71.6365 5.808 71.6765 5.936 71.6765 6.08C71.6765 6.184 71.6325 6.264 71.5445 6.32C71.4565 6.368 71.3645 6.372 71.2685 6.332C70.6205 6.044 69.9685 5.9 69.3125 5.9C68.8325 5.9 68.4445 6.012 68.1485 6.236C67.8605 6.46 67.7165 6.8 67.7165 7.256C67.7165 8.04 68.2405 8.608 69.2885 8.96C70.2805 9.288 70.9765 9.664 71.3765 10.088C71.7765 10.512 71.9765 11.056 71.9765 11.72C71.9765 12.504 71.7405 13.1 71.2685 13.508C70.7965 13.916 70.1045 14.12 69.1925 14.12C68.5045 14.12 67.8845 13.996 67.3325 13.748C67.0525 13.62 66.9125 13.396 66.9125 13.076C66.9125 12.972 66.9565 12.896 67.0445 12.848C67.1325 12.8 67.2205 12.8 67.3085 12.848C67.8525 13.16 68.4565 13.316 69.1205 13.316C70.3845 13.316 71.0165 12.784 71.0165 11.72C71.0165 11.288 70.8805 10.928 70.6085 10.64C70.3365 10.352 69.8885 10.1 69.2645 9.884ZM36.1215 24.116L34.6575 28.58C34.6495 28.604 34.6535 28.628 34.6695 28.652C34.6855 28.668 34.7055 28.676 34.7295 28.676H37.5495C37.5735 28.676 37.5895 28.668 37.5975 28.652C37.6135 28.628 37.6215 28.604 37.6215 28.58L36.1575 24.116C36.1575 24.108 36.1535 24.104 36.1455 24.104C36.1295 24.104 36.1215 24.108 36.1215 24.116ZM33.0375 32C32.9175 32 32.8215 31.952 32.7495 31.856C32.6775 31.752 32.6615 31.644 32.7015 31.532L35.4375 23.744C35.4935 23.592 35.5855 23.472 35.7135 23.384C35.8495 23.288 35.9975 23.24 36.1575 23.24C36.3175 23.24 36.4615 23.288 36.5895 23.384C36.7255 23.472 36.8215 23.592 36.8775 23.744L39.6015 31.52C39.6415 31.64 39.6255 31.752 39.5535 31.856C39.4815 31.952 39.3855 32 39.2655 32C39.1055 32 38.9615 31.956 38.8335 31.868C38.7135 31.772 38.6295 31.652 38.5815 31.508L37.9455 29.54C37.9215 29.476 37.8735 29.444 37.8015 29.444H34.4775C34.4135 29.444 34.3695 29.476 34.3455 29.54L33.6855 31.532C33.6375 31.676 33.5535 31.792 33.4335 31.88C33.3215 31.96 33.1895 32 33.0375 32ZM42.1896 31.856C42.0936 31.952 41.9736 32 41.8296 32C41.6856 32 41.5616 31.952 41.4576 31.856C41.3616 31.752 41.3136 31.628 41.3136 31.484V23.756C41.3136 23.612 41.3616 23.492 41.4576 23.396C41.5616 23.292 41.6856 23.24 41.8296 23.24C41.9736 23.24 42.0936 23.292 42.1896 23.396C42.2936 23.492 42.3456 23.612 42.3456 23.756V31.484C42.3456 31.628 42.2936 31.752 42.1896 31.856Z" fill="white"/>
<path d="M0 19C1.2 19 51.5 19 76.5 19" stroke="white"/>
</svg>
