<svg width="76" height="76" viewBox="0 0 76 76" fill="none" xmlns="http://www.w3.org/2000/svg">
<rect width="76" height="76" fill="#227AD3"/>
<path d="M9.43026 26.86C8.95026 26.236 8.25426 25.924 7.34226 25.924C6.43026 25.924 5.73026 26.236 5.24226 26.86C4.76226 27.484 4.52226 28.404 4.52226 29.62C4.52226 30.836 4.76226 31.756 5.24226 32.38C5.73026 33.004 6.43026 33.316 7.34226 33.316C8.25426 33.316 8.95026 33.004 9.43026 32.38C9.91826 31.756 10.1623 30.836 10.1623 29.62C10.1623 28.404 9.91826 27.484 9.43026 26.86ZM10.1263 32.944C9.45426 33.728 8.52626 34.12 7.34226 34.12C6.15826 34.12 5.22626 33.728 4.54626 32.944C3.87426 32.152 3.53826 31.044 3.53826 29.62C3.53826 28.196 3.87426 27.092 4.54626 26.308C5.22626 25.516 6.15826 25.12 7.34226 25.12C8.52626 25.12 9.45426 25.516 10.1263 26.308C10.8063 27.092 11.1463 28.196 11.1463 29.62C11.1463 31.044 10.8063 32.152 10.1263 32.944ZM13.6047 26.116V29.644C13.6047 29.708 13.6407 29.748 13.7127 29.764C14.0967 29.82 14.5287 29.848 15.0087 29.848C15.8007 29.848 16.4047 29.676 16.8207 29.332C17.2447 28.988 17.4567 28.496 17.4567 27.856C17.4567 27.216 17.2487 26.732 16.8327 26.404C16.4247 26.068 15.8167 25.9 15.0087 25.9C14.5767 25.9 14.1447 25.932 13.7127 25.996C13.6407 26.012 13.6047 26.052 13.6047 26.116ZM13.4607 33.856C13.3727 33.952 13.2607 34 13.1247 34C12.9887 34 12.8727 33.952 12.7767 33.856C12.6887 33.76 12.6447 33.648 12.6447 33.52V25.984C12.6447 25.792 12.7087 25.624 12.8367 25.48C12.9647 25.328 13.1247 25.24 13.3167 25.216C13.9327 25.152 14.5207 25.12 15.0807 25.12C16.1687 25.12 16.9927 25.352 17.5527 25.816C18.1207 26.272 18.4047 26.928 18.4047 27.784C18.4047 28.712 18.1207 29.416 17.5527 29.896C16.9847 30.376 16.1607 30.616 15.0807 30.616C14.6487 30.616 14.1927 30.596 13.7127 30.556C13.6407 30.556 13.6047 30.584 13.6047 30.64V33.52C13.6047 33.648 13.5567 33.76 13.4607 33.856ZM20.524 34C20.34 34 20.18 33.932 20.044 33.796C19.908 33.66 19.84 33.5 19.84 33.316V25.924C19.84 25.74 19.908 25.58 20.044 25.444C20.18 25.308 20.34 25.24 20.524 25.24H24.556C24.668 25.24 24.764 25.28 24.844 25.36C24.924 25.44 24.964 25.532 24.964 25.636C24.964 25.74 24.924 25.836 24.844 25.924C24.764 26.004 24.668 26.044 24.556 26.044H20.908C20.836 26.044 20.8 26.076 20.8 26.14V28.804C20.8 28.868 20.836 28.9 20.908 28.9H24.34C24.452 28.9 24.544 28.94 24.616 29.02C24.688 29.092 24.724 29.18 24.724 29.284C24.724 29.388 24.688 29.48 24.616 29.56C24.544 29.632 24.452 29.668 24.34 29.668H20.908C20.836 29.668 20.8 29.704 20.8 29.776V33.1C20.8 33.164 20.836 33.196 20.908 33.196H24.556C24.668 33.196 24.764 33.24 24.844 33.328C24.924 33.408 24.964 33.5 24.964 33.604C24.964 33.708 24.924 33.8 24.844 33.88C24.764 33.96 24.668 34 24.556 34H20.524ZM27.6749 33.868C27.5869 33.956 27.4789 34 27.3509 34C27.2229 34 27.1109 33.956 27.0149 33.868C26.9269 33.78 26.8829 33.668 26.8829 33.532V25.732C26.8829 25.596 26.9309 25.48 27.0269 25.384C27.1229 25.288 27.2389 25.24 27.3749 25.24C27.7029 25.24 27.9509 25.384 28.1189 25.672L32.1029 32.428C32.1029 32.436 32.1109 32.44 32.1269 32.44C32.1349 32.44 32.1389 32.436 32.1389 32.428V25.708C32.1389 25.572 32.1829 25.46 32.2709 25.372C32.3669 25.284 32.4789 25.24 32.6069 25.24C32.7349 25.24 32.8429 25.284 32.9309 25.372C33.0269 25.46 33.0749 25.572 33.0749 25.708V33.508C33.0749 33.644 33.0269 33.76 32.9309 33.856C32.8349 33.952 32.7189 34 32.5829 34C32.2549 34 32.0069 33.856 31.8389 33.568L27.8549 26.812C27.8549 26.804 27.8469 26.8 27.8309 26.8C27.8229 26.8 27.8189 26.804 27.8189 26.812V33.532C27.8189 33.668 27.7709 33.78 27.6749 33.868ZM35.9255 33.856C35.8375 33.952 35.7255 34 35.5895 34C35.4535 34 35.3375 33.952 35.2415 33.856C35.1535 33.76 35.1095 33.648 35.1095 33.52V25.924C35.1095 25.74 35.1775 25.58 35.3135 25.444C35.4495 25.308 35.6095 25.24 35.7935 25.24H39.7055C39.8175 25.24 39.9135 25.28 39.9935 25.36C40.0735 25.44 40.1135 25.532 40.1135 25.636C40.1135 25.74 40.0735 25.836 39.9935 25.924C39.9135 26.004 39.8175 26.044 39.7055 26.044H36.1775C36.1055 26.044 36.0695 26.076 36.0695 26.14V28.924C36.0695 28.988 36.1055 29.02 36.1775 29.02H39.4895C39.6015 29.02 39.6935 29.06 39.7655 29.14C39.8375 29.212 39.8735 29.3 39.8735 29.404C39.8735 29.508 39.8375 29.6 39.7655 29.68C39.6935 29.752 39.6015 29.788 39.4895 29.788H36.1775C36.1055 29.788 36.0695 29.824 36.0695 29.896V33.52C36.0695 33.648 36.0215 33.76 35.9255 33.856ZM42.6607 34C42.4767 34 42.3167 33.932 42.1807 33.796C42.0447 33.66 41.9767 33.5 41.9767 33.316V25.744C41.9767 25.608 42.0247 25.492 42.1207 25.396C42.2247 25.292 42.3447 25.24 42.4807 25.24C42.6167 25.24 42.7327 25.292 42.8287 25.396C42.9327 25.492 42.9847 25.608 42.9847 25.744V33.076C42.9847 33.148 43.0167 33.184 43.0807 33.184H46.8127C46.9247 33.184 47.0207 33.224 47.1007 33.304C47.1807 33.384 47.2207 33.48 47.2207 33.592C47.2207 33.704 47.1807 33.8 47.1007 33.88C47.0207 33.96 46.9247 34 46.8127 34H42.6607ZM53.7154 26.86C53.2354 26.236 52.5394 25.924 51.6274 25.924C50.7154 25.924 50.0154 26.236 49.5274 26.86C49.0474 27.484 48.8074 28.404 48.8074 29.62C48.8074 30.836 49.0474 31.756 49.5274 32.38C50.0154 33.004 50.7154 33.316 51.6274 33.316C52.5394 33.316 53.2354 33.004 53.7154 32.38C54.2034 31.756 54.4474 30.836 54.4474 29.62C54.4474 28.404 54.2034 27.484 53.7154 26.86ZM54.4114 32.944C53.7394 33.728 52.8114 34.12 51.6274 34.12C50.4434 34.12 49.5114 33.728 48.8314 32.944C48.1594 32.152 47.8234 31.044 47.8234 29.62C47.8234 28.196 48.1594 27.092 48.8314 26.308C49.5114 25.516 50.4434 25.12 51.6274 25.12C52.8114 25.12 53.7394 25.516 54.4114 26.308C55.0914 27.092 55.4314 28.196 55.4314 29.62C55.4314 31.044 55.0914 32.152 54.4114 32.944ZM57.9314 33.412L56.2514 25.72C56.2274 25.592 56.2514 25.48 56.3234 25.384C56.4034 25.288 56.5074 25.24 56.6354 25.24C56.7794 25.24 56.9034 25.288 57.0074 25.384C57.1194 25.472 57.1914 25.584 57.2234 25.72L58.6514 32.956C58.6514 32.964 58.6554 32.968 58.6634 32.968C58.6714 32.968 58.6754 32.964 58.6754 32.956L60.1514 25.852C60.1834 25.676 60.2674 25.532 60.4034 25.42C60.5474 25.3 60.7074 25.24 60.8834 25.24C61.0674 25.24 61.2314 25.3 61.3754 25.42C61.5194 25.532 61.6114 25.676 61.6514 25.852L63.1274 32.956C63.1274 32.964 63.1314 32.968 63.1394 32.968C63.1474 32.968 63.1514 32.964 63.1514 32.956L64.5794 25.708C64.6034 25.572 64.6674 25.46 64.7714 25.372C64.8754 25.284 64.9994 25.24 65.1434 25.24C65.2634 25.24 65.3634 25.288 65.4434 25.384C65.5234 25.48 65.5514 25.588 65.5274 25.708L63.8354 33.412C63.7954 33.588 63.7074 33.732 63.5714 33.844C63.4354 33.948 63.2794 34 63.1034 34C62.9274 34 62.7674 33.948 62.6234 33.844C62.4874 33.732 62.4034 33.588 62.3714 33.412L60.8954 26.284C60.8954 26.276 60.8914 26.272 60.8834 26.272C60.8754 26.272 60.8714 26.276 60.8714 26.284L59.3954 33.412C59.3554 33.588 59.2674 33.732 59.1314 33.844C58.9954 33.948 58.8394 34 58.6634 34C58.4874 34 58.3274 33.948 58.1834 33.844C58.0474 33.732 57.9634 33.588 57.9314 33.412ZM69.0162 29.884C67.3602 29.324 66.5322 28.448 66.5322 27.256C66.5322 26.584 66.7482 26.06 67.1802 25.684C67.6122 25.308 68.2162 25.12 68.9922 25.12C69.7122 25.12 70.3802 25.228 70.9962 25.444C71.1242 25.492 71.2282 25.576 71.3082 25.696C71.3882 25.808 71.4282 25.936 71.4282 26.08C71.4282 26.184 71.3842 26.264 71.2962 26.32C71.2082 26.368 71.1162 26.372 71.0202 26.332C70.3722 26.044 69.7202 25.9 69.0642 25.9C68.5842 25.9 68.1962 26.012 67.9002 26.236C67.6122 26.46 67.4682 26.8 67.4682 27.256C67.4682 28.04 67.9922 28.608 69.0402 28.96C70.0322 29.288 70.7282 29.664 71.1282 30.088C71.5282 30.512 71.7282 31.056 71.7282 31.72C71.7282 32.504 71.4922 33.1 71.0202 33.508C70.5482 33.916 69.8562 34.12 68.9442 34.12C68.2562 34.12 67.6362 33.996 67.0842 33.748C66.8042 33.62 66.6642 33.396 66.6642 33.076C66.6642 32.972 66.7082 32.896 66.7962 32.848C66.8842 32.8 66.9722 32.8 67.0602 32.848C67.6042 33.16 68.2082 33.316 68.8722 33.316C70.1362 33.316 70.7682 32.784 70.7682 31.72C70.7682 31.288 70.6322 30.928 70.3602 30.64C70.0882 30.352 69.6402 30.1 69.0162 29.884ZM35.8731 44.116L34.4091 48.58C34.4011 48.604 34.4051 48.628 34.4211 48.652C34.4371 48.668 34.4571 48.676 34.4811 48.676H37.3011C37.3251 48.676 37.3411 48.668 37.3491 48.652C37.3651 48.628 37.3731 48.604 37.3731 48.58L35.9091 44.116C35.9091 44.108 35.9051 44.104 35.8971 44.104C35.8811 44.104 35.8731 44.108 35.8731 44.116ZM32.7891 52C32.6691 52 32.5731 51.952 32.5011 51.856C32.4291 51.752 32.4131 51.644 32.4531 51.532L35.1891 43.744C35.2451 43.592 35.3371 43.472 35.4651 43.384C35.6011 43.288 35.7491 43.24 35.9091 43.24C36.0691 43.24 36.2131 43.288 36.3411 43.384C36.4771 43.472 36.5731 43.592 36.6291 43.744L39.3531 51.52C39.3931 51.64 39.3771 51.752 39.3051 51.856C39.2331 51.952 39.1371 52 39.0171 52C38.8571 52 38.7131 51.956 38.5851 51.868C38.4651 51.772 38.3811 51.652 38.3331 51.508L37.6971 49.54C37.6731 49.476 37.6251 49.444 37.5531 49.444H34.2291C34.1651 49.444 34.1211 49.476 34.0971 49.54L33.4371 51.532C33.3891 51.676 33.3051 51.792 33.1851 51.88C33.0731 51.96 32.9411 52 32.7891 52ZM41.9412 51.856C41.8452 51.952 41.7252 52 41.5812 52C41.4372 52 41.3132 51.952 41.2092 51.856C41.1132 51.752 41.0652 51.628 41.0652 51.484V43.756C41.0652 43.612 41.1132 43.492 41.2092 43.396C41.3132 43.292 41.4372 43.24 41.5812 43.24C41.7252 43.24 41.8452 43.292 41.9412 43.396C42.0452 43.492 42.0972 43.612 42.0972 43.756V51.484C42.0972 51.628 42.0452 51.752 41.9412 51.856Z" fill="white"/>
<path d="M0 39C1.19216 39 51.1634 39 76 39" stroke="white"/>
</svg>
